<svg xmlns="http://www.w3.org/2000/svg" width="46.717" height="54.96" viewBox="0 0 46.717 54.96">
  <g id="location_on_map_-_icon" data-name="location on map - icon" transform="translate(-3.5 -2)">
    <path id="Path_30" data-name="Path 30" d="M3.5,24.858C3.5,12.217,14.064,2,26.839,2,39.654,2,50.217,12.217,50.217,24.858a28.5,28.5,0,0,1-6.128,17.3A60.631,60.631,0,0,1,28.862,56.28a3.293,3.293,0,0,1-4.009,0A59.468,59.468,0,0,1,9.628,42.155,28.482,28.482,0,0,1,3.5,24.858Zm15.647.712a7.712,7.712,0,0,0,15.422,0,7.711,7.711,0,0,0-15.422,0Z" transform="translate(0)" fill="#2cffa5" fill-rule="evenodd"/>
  </g>
</svg>
